<svg width="58" height="46" viewBox="0 0 58 46" fill="none" xmlns="http://www.w3.org/2000/svg">
<path d="M29.1755 45.9958C20.6791 45.9958 12.1828 45.9958 3.68643 45.9958C3.2714 45.9958 2.85099 45.9958 2.43417 45.9572C0.307099 45.7785 -0.548022 44.4887 0.358978 42.7448C1.14612 41.2393 2.00482 39.7724 2.83847 38.2829C6.77417 31.2699 10.7099 24.258 14.6456 17.2472C14.7672 17.033 14.8942 16.8188 15.0356 16.6143C16.0266 15.1845 17.6367 14.9832 18.9051 16.2166C19.7996 17.0797 20.5563 18.049 21.3542 18.9846C25.4091 23.754 29.4641 28.5256 33.5191 33.2993C35.2901 35.3765 37.5209 35.4892 39.6015 33.6214C40.6337 32.6939 41.6427 31.7423 42.6874 30.8228C44.5712 29.1643 46.709 29.2642 48.2475 31.198C51.3353 35.0786 54.3461 39.0108 57.3712 42.93C57.6076 43.2375 57.7887 43.5766 57.9079 43.9348C58.2013 44.8349 57.7862 45.5595 56.7719 45.7994C56.1359 45.9365 55.483 45.9998 54.8291 45.9878C46.2826 46.0007 37.7314 46.0034 29.1755 45.9958Z" fill="#E7E7E7"/>
<path d="M48.2296 7.5682C48.2274 9.06507 47.7315 10.5277 46.8047 11.7705C45.8779 13.0134 44.562 13.9806 43.0237 14.5495C41.4855 15.1184 39.7942 15.2634 38.1643 14.966C36.5344 14.6687 35.0393 13.9425 33.8685 12.8794C32.6977 11.8163 31.904 10.4643 31.5879 8.99469C31.2719 7.52509 31.4478 6.00412 32.0933 4.6246C32.7388 3.24509 33.8248 2.06915 35.2137 1.24587C36.6026 0.422591 38.2319 -0.0109498 39.8949 0.000210155C42.1093 0.0255393 44.224 0.833084 45.7831 2.24876C47.3422 3.66444 48.2209 5.57486 48.2296 7.5682Z" fill="#E7E7E7"/>
</svg>
